Coordinates
version=1
nRows=6
nColumns=36
inDegrees=yes

Units are S.I. units (second, meters, Newtons, ...)
If the header above contains a line with 'inDegrees', this indicates whether rotational values are in degrees (yes) or radians (no).

endheader
time	pelvis_tilt	pelvis_list	pelvis_rotation	pelvis_tx	pelvis_ty	pelvis_tz	hip_flexion_r	hip_adduction_r	hip_rotation_r	knee_angle_r	knee_angle_r_beta	ankle_angle_r	subtalar_angle_r	mtp_angle_r	hip_flexion_l	hip_adduction_l	hip_rotation_l	knee_angle_l	knee_angle_l_beta	ankle_angle_l	subtalar_angle_l	mtp_angle_l	lumbar_extension	lumbar_bending	lumbar_rotation	arm_flex_r	arm_add_r	arm_rot_r	elbow_flex_r	pro_sup_r	arm_flex_l	arm_add_l	arm_rot_l	elbow_flex_l	pro_sup_l
     10.09000000	    -11.85022236	     -0.86721865	      2.43863070	     -0.22729415	      0.91581591	     -0.60940688	     30.35026406	     -8.44972272	     -5.71681442	     30.89717088	      0.53925736	     14.54232330	     -6.11437578	     -7.49999987	     32.89016419	     -8.41497884	     -4.63254215	     31.51442944	      0.55003056	     13.27248154	     -3.39869768	     -7.49999987	     -4.88740440	      0.81992993	      0.66581813	     28.95336722	    -13.50207431	     -3.89068297	     46.17846949	    113.25777767	     40.30394689	    -10.57638802	      0.62484155	     32.60640972	    108.03274583
     10.10000000	    -10.80844267	     -0.89160290	      2.53961234	     -0.22311485	      0.92120544	     -0.60955540	     27.91307946	     -8.20285001	     -5.81061398	     28.93429207	      0.50499866	     13.23022653	     -6.51298383	     -7.49999987	     30.54096823	     -8.22478244	     -4.37834052	     29.70572502	      0.51846271	     12.26249741	     -3.91868142	     -7.49999987	     -5.31646252	      0.87031478	      0.60003741	     27.43237328	    -13.10121197	     -5.32373090	     45.64661586	    113.27519209	     39.09096015	    -10.44106775	     -0.19850429	     31.47724735	    108.08885802
     10.11000000	    -10.34228184	     -0.87341697	      2.56437017	     -0.21911770	      0.92522885	     -0.60966834	     26.26995884	     -8.03735319	     -5.86066202	     27.25953862	      0.47576870	     12.49590538	     -6.27199979	     -7.49999987	     28.91866480	     -8.06081948	     -4.29459046	     28.11857084	      0.49076164	     11.71287923	     -3.80187992	     -7.49999987	     -5.02873190	      0.87416541	      0.52506222	     25.79476703	    -12.90616967	     -5.82858839	     45.15559216	    113.27567072	     37.54702286	    -10.47370422	     -0.50224865	     30.64922458	    108.10484577
     10.12000000	    -10.13065143	     -0.82925525	      2.55847186	     -0.21524063	      0.92854548	     -0.60977965	     24.99711211	     -7.90952926	     -5.87151301	     25.75464351	      0.44950333	     11.96601179	     -5.94228193	     -7.49999987	     27.62679572	     -7.86560145	     -4.22610941	     26.64469827	      0.46503771	     11.37044354	     -3.67973028	     -7.49999987	     -4.42769438	      0.83991939	      0.47627171	     24.09038820	    -12.70738053	     -6.07503554	     44.64571049	    113.24522540	     35.94908730	    -10.49247630	     -0.72703070	     29.89111877	    108.07790339
     10.13000000	     -9.32862922	     -0.79347730	      2.55794129	     -0.21126169	      0.93271325	     -0.60992199	     22.94946419	     -7.74609731	     -5.94565206	     23.97616223	      0.41846297	     11.03975521	     -5.64705061	     -7.49999987	     25.58115320	     -7.70024645	     -4.09274057	     24.94692832	      0.43540604	     10.58002547	     -3.74553836	     -7.49999987	     -4.62574989	      0.81459627	      0.43731026	     22.64610063	    -12.58176648	     -6.54101775	     44.10641130	    113.19852560	     34.65721716	    -10.45595036	     -1.20085047	     28.95025041	    108.06631946
     10.14000000	     -8.90705627	     -0.77993550	      2.51820920	     -0.20748421	      0.93592976	     -0.60992981	     21.43376369	     -7.57177198	     -5.92141470	     22.39515316	      0.39086916	     10.42167653	     -5.60222212	     -7.49999987	     24.06843592	     -7.58811017	     -4.08976592	     23.44504343	      0.40919320	      9.95740912	     -3.84847984	     -7.49999987	     -4.38259585	      0.84033818	      0.46150469	     21.11680017	    -12.46732777	     -6.81213065	     43.63692579	    113.17981631	     33.25796467	    -10.40426859	     -1.60871298	     28.12224515	    108.04457917
